<mxfile host="app.diagrams.net" modified="2024-09-11T09:12:12.939Z" agent="Mozilla/5.0 (Windows NT 10.0; Win64; x64) AppleWebKit/537.36 (KHTML, like Gecko) Chrome/128.0.0.0 Safari/537.36" version="24.6.4" etag="Wz_CYqwDpxL-mvs6OAcK" type="github">
  <diagram name="Pagina-1" id="acCuWvq9XgB9fazc1UgX">
    <mxGraphModel>
      <root>
        <mxCell id="0" />
        <mxCell id="1" parent="0" />
      </root>
    </mxGraphModel>
  </diagram>
</mxfile>
